<svg xmlns="http://www.w3.org/2000/svg" version="1.1" xmlns:xlink="http://www.w3.org/1999/xlink" xmlns:svgjs="http://svgjs.dev/svgjs" width="100%" height="100%" viewBox="0 0 1000 600"><rect width="1000" height="600" x="0" y="0" fill=" #ADD8E6"/><g><circle r="166.66666666666666" cx="374.2536265055338" cy="396.47590238704106" fill="#3c1a5b" transform="matrix(0.6021570997787213,0,0,0.6021570997787213,0,61.259213663899075)"/><path d="M374.4836666218066 324.4772219568983L383.79431241704356 321.4759079005513Q388.8549222492782 323.99525911573306 394.04697649273976 329.5159243872618Q399.2609381380725 335.03658965879055 401.6269375401563 340.5572549303193L401.6269375401563 340.5572549303193L365.01966901347157 435.83254566793244L359.1923001157468 437.716582228851Q356.0376342463018 436.1392492941285 352.0943019094956 433.7075276864313Q348.1509695726893 431.253898676863 344.6019704695637 428.34021422800055Q341.05297136643804 425.4265297791382 338.6869719643543 422.57856753588925L338.6869719643543 422.57856753588925L331.282270131907 387.39528013082906L314.5450151023516 435.83254566793244L308.7176462046268 437.716582228851Q305.56298033518186 436.1392492941285 301.6196479983756 433.7075276864313Q297.67631566156933 431.253898676863 294.12731655844374 428.34021422800055Q290.57831745531814 425.4265297791382 288.21231805323436 422.57856753588925L288.21231805323436 422.57856753588925L277.65295035134204 372.1039136247693L262.9749910976744 328.42055429370447L269.4376746496624 321.4759079005513Q274.01632164073186 322.26457436791253 280.3256533796219 325.09062920929034Q286.63498511851185 327.9385914525393 290.57831745531814 332.03527560244356L290.57831745531814 332.03527560244356L295.46366807258363 369.7379142226855L305.86968396137786 416.75119863816445L324.1842719256558 365.9479336989773L316.91101450443534 326.66796214401285L327.0103267670336 321.4759079005513Q334.89699144064605 324.63057376999626 340.65863813275746 330.9399055088863Q346.42028482486876 337.24923724777625 349.4215988812158 344.5005872671255L349.4215988812158 344.5005872671255L344.3609890489811 359.0032873058241L345.9383219837036 369.7379142226855L356.3443378724978 416.5759394231953L374.4836666218066 363.2752306706975L374.4836666218066 324.4772219568983ZM469.9123091725178 353.81123306236253L469.9123091725178 353.81123306236253Q472.76027141576674 355.05995496901784 475.91493728521175 357.9079172122668Q479.0696031546567 360.75587945551575 481.7423061829365 364.6115821848374Q484.4369166130874 368.46728491415905 485.5322867066447 372.58587646593446L485.5322867066447 372.58587646593446L482.37762083719974 416.75119863816445Q480.011621435116 421.78990106852797 475.6082336590157 426.91623310637607Q471.1829384810442 432.0425651442242 466.75764330307277 435.1972310136692L466.75764330307277 435.1972310136692Q459.83490431179064 436.4678603221957 454.46759085336 437.08126757458774Q449.10027739492926 437.716582228851 444.2149267776637 437.65086002323756Q439.32957616039823 437.56323041575297 433.48029986080223 436.77456394839174L433.48029986080223 436.77456394839174L433.48029986080223 467.68590798857844L428.7483010566348 471.47588851228664Q427.17096812191227 471.3225366991887 424.10393185995184 470.3805184187294Q421.01498819612027 469.41659273639897 418.10130374725793 467.9268894091611Q415.1876192983955 466.43718608192313 413.763638176771 465.16655677339674L413.763638176771 465.16655677339674L419.13095163520177 394.82188936514746L417.7069705135773 373.19928371832657L404.2996405684361 376.6825606158387Q402.87565944681154 374.7766166530491 401.4735857270582 371.315247157408Q400.04960460543373 367.853877661767 399.7209935773666 364.21724895115676L399.7209935773666 364.21724895115676L421.01498819612027 353.81123306236253Q422.59232113084283 353.96458487546056 425.5279129815764 355.541917810183Q428.4415974304387 357.1192507449055 431.3552818793011 358.93756510021063Q434.2689663281635 360.75587945551575 435.692947449788 362.00460136217106L435.692947449788 362.00460136217106L434.9042809824267 377.62457889629803Q441.21361272131674 370.37322887694876 447.67629627330473 365.00591541851804Q454.1389798252928 359.63860196008727 459.9882561248887 356.7249175112249Q465.8156250226135 353.81123306236253 469.9123091725178 353.81123306236253ZM462.8143109662665 418.63523519908296L462.8143109662665 418.63523519908296Q465.35556958331944 409.01788577764995 466.2975878637787 399.860591795511Q467.239606144238 390.7252052152432 466.9986247236553 383.38622558840933Q466.75764330307277 376.0472459615755 465.8156250226135 371.79720999857324L465.8156250226135 371.79720999857324Q461.236978031544 373.19928371832657 455.40960913381923 378.32561575617467Q449.58224023609444 383.45194779402283 443.8205935439831 390.8785570283412Q438.0589468518717 398.2832588607885 433.6336516739003 406.6518863755662L433.6336516739003 406.6518863755662L433.6336516739003 421.4831974423319Q441.21361272131674 422.2718639096932 448.618314553764 421.4831974423319Q456.04492378808243 420.6945309749707 462.8143109662665 418.63523519908296Z " fill="#fff748" transform="matrix(0.6021570997787213,0,0,0.6021570997787213,0,61.259213663899075)"/><path d="M751.716065492027 342.0351718442088L762.358802439634 338.60445428698023Q768.1434429923332 341.48425369633264 774.0783339489988 347.79477066291366Q780.0382666396586 354.10528762949474 782.7427739110504 360.4158045960757L782.7427739110504 360.4158045960757L740.8980364064596 469.3223057375872L734.2369351639575 471.4758948611029Q730.6309254687683 469.6728900135084 726.1234133497818 466.89325754013333Q721.6159012307953 464.088583332764 717.5591403237075 460.75803271151295Q713.5023794166198 457.42748209026183 710.7978721452279 454.17205667099387L710.7978721452279 454.17205667099387L702.333766055131 413.95503187603697L683.2018812834331 469.3223057375872L676.5407800409309 471.4758948611029Q672.9347703457418 469.6728900135084 668.4272582267553 466.89325754013333Q663.9197461077688 464.088583332764 659.862985200681 460.75803271151295Q655.8062242935932 457.42748209026183 653.1017170222013 454.17205667099387L653.1017170222013 454.17205667099387L641.0316012369154 396.47590154796734L624.2536394606881 346.5426839631952L631.640950989027 338.60445428698023Q636.8746733938501 339.5059567107775 644.0866927842285 342.7363403960511Q651.2987121746069 345.99176581531907 655.8062242935932 350.67457007226614L655.8062242935932 350.67457007226614L661.3905309743375 393.77139427657545L673.2853546216629 447.5109554284916L694.2202442409555 389.43917429554955L685.906388554825 344.5393452436457L697.4506279262291 338.60445428698023Q706.4656521642021 342.21046398216936 713.051628204721 349.4224833725477Q719.6376042452403 356.634502762926 723.0683218024687 364.9233167150622L723.0683218024687 364.9233167150622L717.2836812497694 381.5009446193346L719.086686097364 393.77139427657545L730.9815097446894 447.31062155653666L751.716065492027 386.38408274823655L751.716065492027 342.0351718442088ZM826.1901823912809 375.56605366266905L826.1901823912809 375.56605366266905Q833.4022017816592 376.29226394850576 839.5374266102797 380.5994421955373Q845.6726514389002 384.9316621765631 850.3554556958472 390.96672006920613Q855.0382599527942 397.0268196958434 857.5674750862254 403.5126288003851L857.5674750862254 403.5126288003851L856.1150545145521 446.7847451426549Q854.687675676873 449.6645445520074 851.7077093315431 453.72130545909516Q848.7277429862131 457.778066366183 845.2219002270015 461.5593681993327Q841.6910157337954 465.3406700324825 838.2602981765668 467.8698851659138L838.2602981765668 467.8698851659138Q832.8512836337832 469.4975978755478 827.9931872388755 470.4992672353225Q823.1350908439679 471.4758948611029 817.0749912173305 471.4758948611029Q811.0399333246876 471.4758948611029 802.0249090867146 470.7496845752662L802.0249090867146 470.7496845752662Q798.4188993915255 469.3223057375872 793.5608029966179 465.61612910642054Q788.677664867716 461.93499420924826 784.7210708966056 457.32731515428435Q780.7644769254953 452.71963609932044 779.662640629743 448.5877499902495L779.662640629743 448.5877499902495L782.0165636252137 399.53099309528034Q783.4689841968872 395.9249834000912 785.8980323943409 391.5176382170822Q788.3270805917948 387.11029303407327 791.3070469371247 382.95336519100795Q794.2870132824546 378.7964373479427 797.1668126918071 376.6428482244269L797.1668126918071 376.6428482244269Q801.8496169487541 377.8949349241454 805.2803345059826 380.5243169935542Q808.7110520632112 383.12865732896853 810.5140569108058 385.65787246239984L810.5140569108058 385.65787246239984Q805.6309187819038 391.4174712811047 803.3020375204276 400.43249551907763Q800.9481145249568 409.44751975705054 800.3971963770807 419.1887542808601Q799.871319963199 428.92998880466973 800.8479475889793 437.3189696927834Q801.8496169487541 445.70795058089703 803.6526217963487 450.3907548378441L803.6526217963487 450.3907548378441Q811.2152254626482 451.81813367552314 818.8779960649251 451.3673824636245Q826.5407666672021 450.91663125172585 833.2269096436986 449.11362640413125L833.2269096436986 449.11362640413125Q837.0082114768484 438.1203051806032 837.3587957527695 426.6762327451765Q837.7344217626851 415.2321603097498 835.7561247771299 406.74301248565865L835.7561247771299 406.74301248565865Q829.6208999485095 402.06020822871164 824.6626366176245 399.28057575533666Q819.7043732867393 396.47590154796734 813.2185641821977 393.94668641453603L813.2185641821977 393.94668641453603Q816.4489478674714 388.0117954578705 819.2536220748407 384.1303266887433Q822.0332545482156 380.2488579196161 826.1901823912809 375.56605366266905ZM930.5891714138058 375.56605366266905L930.5891714138058 375.56605366266905Q934.7210575228769 377.7196427861848 938.6025262920041 383.5794085408672Q942.4839950611313 389.43917429554955 944.1117077707652 395.7496912621306L944.1117077707652 395.7496912621306L942.4839950611313 418.2872518570628Q939.4289035138181 420.46588271457296 934.7210575228769 421.44251034035335Q930.0382532659298 422.44417970012813 926.0816592948195 422.6194718380887L926.0816592948195 422.6194718380887L921.7494393137936 418.46254399502345Q922.6509417375909 411.80144275252127 922.926400811529 406.66788728367555Q923.201859885467 401.5343318148299 922.4756495996303 397.5526961097252L922.4756495996303 397.5526961097252Q916.891342918886 401.7096239527905 912.1083717259614 409.547686693028Q907.3254005330369 417.3857494332656 903.3688065619267 426.9516918191146L903.3688065619267 426.9516918191146L903.8946829758083 468.5960954517505Q899.938089004698 469.6728900135084 894.7043665998749 469.6728900135084Q889.4706441950518 469.6728900135084 885.3387580859809 468.5960954517505L885.3387580859809 468.5960954517505Q879.7294096712421 462.6361627610906 876.123399976053 455.07355909479116L876.123399976053 455.07355909479116Q877.4005284097658 449.11362640413125 879.7294096712421 442.3523582256516Q882.083332666713 435.5910900471719 885.1384242140259 428.92998880466973L885.1384242140259 428.92998880466973L885.1384242140259 422.44417970012813L882.9848350905102 397.5526961097252L867.3087096100351 401.5343318148299Q866.0315811763222 399.35570095731975 864.2285763287276 395.47423218819256Q862.4255714811331 391.6178051530597 862.0749872052119 387.46087730999443L862.0749872052119 387.46087730999443L886.4155526477387 375.56605366266905Q888.2185574953332 375.7413458006297 891.5491081165844 377.5443506482242Q894.8796587378356 379.3473554958188 898.2102093590865 381.4258194173514Q901.5658017143321 383.5042833388841 903.1684726899716 384.9316621765631L903.1684726899716 384.9316621765631L902.4673041381293 399.1804088193592Q909.8546156664682 388.9132978816678 917.4172193327677 382.2271549051713Q925.0048647330616 375.56605366266905 930.5891714138058 375.56605366266905ZM1019.2869932218614 450.91663125172585L1037.8679598456833 444.8064481570998Q1039.2953386833624 446.9600372806155 1041.0232183289738 451.3673824636245Q1042.7260562405909 455.7997693806278 1043.1016822505067 459.9316554896987L1043.1016822505067 459.9316554896987L1022.3671265031688 471.4758948611029Q1014.2536046889932 469.4975978755478 1006.7661262246769 464.81479361860073Q999.2786477603605 460.13198936165367 995.1217199172952 455.62447724266724L995.1217199172952 455.62447724266724Q993.3187150697006 450.01512882792855 990.8896668722468 442.177066087691Q988.4606186747931 434.33900334745346 987.9097005269169 424.2471845477227L987.9097005269169 424.2471845477227Q981.5991835603359 429.2805730805909 976.5657950274676 435.96671605708747L976.5657950274676 435.96671605708747L977.8178817271862 468.5960954517505Q973.8612877560759 469.6728900135084 967.7260629274554 469.6728900135084Q961.5908380988349 469.6728900135084 957.458951989764 468.5960954517505L957.458951989764 468.5960954517505Q950.948101151228 462.46087062313 946.9915071801177 453.27055424719657L946.9915071801177 453.27055424719657Q947.893009603915 448.21212398033396 950.2469325993857 443.1787354474658Q952.575813860862 438.1203051806032 956.0065314180906 433.2622087856956L956.0065314180906 433.2622087856956L956.9080338418878 422.44417970012813L957.9848284036457 343.83817669180337L943.9364156328047 347.4441863869925Q942.6592871990918 345.2655555294824 940.8562823514973 341.38408676035516Q939.0532775039027 337.52765972522235 938.7026932279815 333.37073188215703L938.7026932279815 333.37073188215703L963.0432586705083 321.4759082348317Q964.8462635181029 321.6512003727923 968.176814139354 323.2789130824263Q971.5073647606051 324.9066257920603 974.8379153818562 327.060214915576Q978.1935077371016 329.21380403909177 979.7961787127413 330.8415167487258L979.7961787127413 330.8415167487258L974.762790179873 412.35236090039734Q980.522388998578 407.1186384955742 986.6576138271985 402.43583423862714Q992.792838655819 397.7279882476858 998.7277296124844 393.77139427657545L998.7277296124844 393.77139427657545Q1000.0048580461971 390.16538458138626 1001.8078628937917 386.6595418221746Q1003.6108677413863 383.12865732896853 1006.8412514266599 379.17206335785824L1006.8412514266599 379.17206335785824Q1010.9981792697253 378.09526879610036 1016.5073607484865 377.8198097221623Q1021.9915004932533 377.5443506482242 1025.9731361983581 378.4458530720215L1025.9731361983581 378.4458530720215Q1029.028227745671 382.2271549051713 1030.7310656572881 387.7363363839325Q1032.4589453028996 393.2204761286993 1032.6342374408603 398.45419853352246L1032.6342374408603 398.45419853352246Q1016.0566095365878 406.2171360717769 1003.7861598793469 413.4291554621552L1003.7861598793469 413.4291554621552Q1005.0382465790653 420.9917591284547 1009.0198822841701 431.2839118001404Q1012.9764762552804 441.5510227378318 1019.2869932218614 450.91663125172585L1019.2869932218614 450.91663125172585ZM1153.2602700917364 339.6812488487381L1153.2602700917364 339.6812488487381Q1158.118366486644 342.38575612012994 1162.3504195316923 346.5426839631952Q1166.607514310735 350.67457007226614 1169.8378979960087 354.8314979153314Q1173.0933234152767 358.96338402440233 1174.7210361249108 362.0435173057097L1174.7210361249108 362.0435173057097L1171.816194981564 401.7096239527905L1152.5340598058997 422.6194718380887L1110.163445887427 423.520974261886L1110.5140301633483 468.94667972767166L1100.4222113636174 471.4758948611029Q1095.7394071066706 469.1470135996266 1090.8813107117628 465.0902526925388Q1085.998172582861 461.03349178545096 1082.943081035548 455.24885123275175L1082.943081035548 455.24885123275175L1091.4071871256447 408.0201409193715L1089.253598002129 342.38575612012994L1094.487320406952 338.7797464249408Q1096.991493806389 339.130330700862 1101.8746319352908 341.48425369633264Q1106.7327283301984 343.83817669180337 1109.9881537494666 346.3423500912403L1109.9881537494666 346.3423500912403Q1117.0248810018843 342.7363403960511 1124.8629437421218 340.93333554845657Q1132.7010064823594 339.130330700862 1140.0883180106982 338.7797464249408Q1147.475629539037 338.42916214901965 1153.2602700917364 339.6812488487381ZM1150.9063470962656 359.68959431023904L1150.9063470962656 359.68959431023904Q1142.6175331441295 358.26221547256 1131.6993371225844 359.61446910825595Q1120.806182835034 360.96672274395183 1111.4155325871454 365.09860885302277L1111.4155325871454 365.09860885302277L1110.163445887427 407.2939306335348L1150.380470682384 398.2789063955619Q1151.6325573821023 388.3623797337917 1151.807849520063 377.8949349241454Q1151.9831416580237 367.4525318484935 1150.9063470962656 359.68959431023904ZM1208.9781282292079 365.27390099098335L1208.9781282292079 365.27390099098335Q1199.5874779813194 360.2405124581151 1192.0248743150198 351.951698505979L1192.0248743150198 351.951698505979Q1192.2001664529803 349.0468573626321 1194.4539225124736 345.3657224654599Q1196.7076785719669 341.6595458342933 1199.8629370552574 338.5042873510027Q1203.0181955385478 335.3490288677122 1205.8979949479003 334.6228185818755L1205.8979949479003 334.6228185818755Q1208.7777943572528 334.6228185818755 1212.383804052442 336.87657464136873Q1215.9898137476312 339.130330700862 1219.0699470289387 342.28558918415246Q1222.1250385762517 345.440847667443 1222.675956724128 348.3456888107898L1222.675956724128 348.3456888107898Q1222.500664586167 351.40078035810285 1220.1467415906964 355.10695698926946Q1217.7928185952255 358.78809188644175 1214.7377270479126 361.5927660938111Q1211.6826355005996 364.37239856718605 1208.9781282292079 365.27390099098335ZM1212.7594300623575 449.3139602760862L1228.8111815527482 444.43082214718424Q1230.0632682524665 446.60945300469433 1231.866273100061 451.01679818770333Q1233.6692779476557 455.42414337071233 1234.0198622235769 459.58107121377753L1234.0198622235769 459.58107121377753L1209.6792967810502 471.4758948611029Q1195.9814682861302 465.1653778945219 1190.948079753262 455.24885123275175L1190.948079753262 455.24885123275175L1194.7293815864118 398.62949067148304L1181.5574295053734 402.6111263765877Q1180.305342805655 400.43249551907763 1178.5023379580605 396.02515033606863Q1176.699333110466 391.6178051530597 1176.3237071005503 387.46087730999443L1176.3237071005503 387.46087730999443L1200.6642725430772 375.56605366266905Q1202.4672773906718 375.7413458006297 1205.8979949479003 377.5443506482242Q1209.3287125051288 379.3473554958188 1212.65926312638 381.5009446193346Q1215.9898137476312 383.67957547684466 1217.7928185952255 385.1069543145237L1217.7928185952255 385.1069543145237L1212.7594300623575 424.7730609616045L1212.7594300623575 449.3139602760862ZM1267.200159766116 449.4892524140468L1282.9013269805855 445.33232457098154Q1284.3287058182646 447.5109554284916 1286.056585463876 451.467549399602Q1287.759423375493 455.42414337071233 1288.1100076514144 459.58107121377753L1288.1100076514144 459.58107121377753L1263.7694422088875 471.4758948611029Q1257.1083409663852 468.4208033137899 1252.0499106995226 464.088583332764Q1247.0165221666546 459.7563633517381 1244.4873070332233 455.07355909479116L1244.4873070332233 455.07355909479116L1248.2686088663731 395.9249834000912L1249.7210294380463 343.83817669180337L1235.6475749332108 347.4441863869925Q1234.3954882334924 345.2655555294824 1232.5924833858978 341.38408676035516Q1230.7894785383032 337.52765972522235 1230.4138525283877 333.37073188215703L1230.4138525283877 333.37073188215703L1254.7544179709146 321.4759082348317Q1256.5574228185092 321.6512003727923 1260.4388915876364 323.2789130824263Q1264.3203603567636 324.9066257920603 1268.1016621899134 327.060214915576Q1271.882964023063 329.21380403909177 1273.510676732697 330.8415167487258L1273.510676732697 330.8415167487258L1265.772780928437 397.5526961097252L1267.200159766116 449.4892524140468ZM1340.046563955736 375.56605366266905L1340.046563955736 375.56605366266905Q1347.2585833461144 376.29226394850576 1353.3938081747347 380.5994421955373Q1359.529033003355 384.9316621765631 1364.2118372603022 390.96672006920613Q1368.894641517249 397.0268196958434 1371.4238566506806 403.5126288003851L1371.4238566506806 403.5126288003851L1369.9714360790072 446.7847451426549Q1368.5440572413281 449.6645445520074 1365.564090895998 453.72130545909516Q1362.584124550668 457.778066366183 1359.0782817914564 461.5593681993327Q1355.5473972982504 465.3406700324825 1352.116679741022 467.8698851659138L1352.116679741022 467.8698851659138Q1346.707665198238 469.4975978755478 1341.8495688033304 470.4992672353225Q1336.9914724084229 471.4758948611029 1330.9313727817855 471.4758948611029Q1324.8963148891426 471.4758948611029 1315.8812906511696 470.7496845752662L1315.8812906511696 470.7496845752662Q1312.2752809559806 469.3223057375872 1307.4171845610729 465.61612910642054Q1302.5340464321707 461.93499420924826 1298.5774524610606 457.32731515428435Q1294.62085848995 452.71963609932044 1293.519022194198 448.5877499902495L1293.519022194198 448.5877499902495L1295.8729451896686 399.53099309528034Q1297.3253657613423 395.9249834000912 1299.7544139587958 391.5176382170822Q1302.1834621562498 387.11029303407327 1305.1634285015798 382.95336519100795Q1308.1433948469096 378.7964373479427 1311.0231942562618 376.6428482244269L1311.0231942562618 376.6428482244269Q1315.7059985132091 377.8949349241454 1319.1367160704376 380.5243169935542Q1322.567433627666 383.12865732896853 1324.370438475261 385.65787246239984L1324.370438475261 385.65787246239984Q1319.4873003463588 391.4174712811047 1317.1584190848826 400.43249551907763Q1314.8044960894117 409.44751975705054 1314.2535779415357 419.1887542808601Q1313.727701527654 428.92998880466973 1314.7043291534342 437.3189696927834Q1315.7059985132091 445.70795058089703 1317.5090033608035 450.3907548378441L1317.5090033608035 450.3907548378441Q1325.071607027103 451.81813367552314 1332.73437762938 451.3673824636245Q1340.397148231657 450.91663125172585 1347.0832912081537 449.11362640413125L1347.0832912081537 449.11362640413125Q1350.8645930413034 438.1203051806032 1351.2151773172245 426.6762327451765Q1351.59080332714 415.2321603097498 1349.6125063415848 406.74301248565865L1349.6125063415848 406.74301248565865Q1343.4772815129645 402.06020822871164 1338.5190181820794 399.28057575533666Q1333.5607548511944 396.47590154796734 1327.0749457466527 393.94668641453603L1327.0749457466527 393.94668641453603Q1330.305329431926 388.0117954578705 1333.1100036392954 384.1303266887433Q1335.8896361126706 380.2488579196161 1340.046563955736 375.56605366266905ZM1418.6525669640605 450.91663125172585L1449.1283572352081 443.35402758542637Q1450.3804439349265 444.9817402950604 1451.8328645066 449.11362640413125Q1453.285285078273 453.27055424719657 1453.0849512063182 456.8765639423857L1453.0849512063182 456.8765639423857Q1448.2268548114107 459.7563633517381 1441.9163378448297 462.6361627610906Q1435.6058208782483 465.54100390443745 1429.7460551235663 467.8698851659138Q1423.8862893688838 470.22380816138445 1419.9296953977735 471.4758948611029L1419.9296953977735 471.4758948611029Q1415.221849406832 470.0485160234239 1409.6375427260878 466.9683827421165Q1404.0532360453435 463.91329119480343 1399.6458908623345 459.6812381497551Q1395.213503945331 455.42414337071233 1393.9614172456127 451.1169651236808L1393.9614172456127 451.1169651236808L1397.9180112167228 399.53099309528034L1384.0448905838425 402.2355003666722L1379.537378464856 389.9900924434257L1398.0933033546835 373.9383409530351L1396.8412166549651 359.51430217227846Q1399.896308202278 356.25887675301044 1404.2285281833042 353.10361826971996Q1408.5607481643299 349.9483597864294 1412.5173421354402 348.3456888107898L1412.5173421354402 348.3456888107898L1419.2034851119367 353.02849306773686L1418.4772748261003 378.09526879610036Q1425.8645863544389 377.36905851026364 1433.7026490946764 377.19376637230306Q1441.5657535689083 376.9934325003481 1449.3036493731684 377.7196427861848L1449.3036493731684 377.7196427861848L1451.106654220763 392.14368156694144L1445.522347540019 397.9283221196407Q1431.0983087592622 396.8264858238885 1417.926356678224 397.37740397176464L1417.926356678224 397.37740397176464Q1416.6742699785054 405.4909257859402 1416.1233518306294 415.05686817178923Q1415.5974754167473 424.5977688236439 1416.1233518306294 433.8882521355548Q1416.6742699785054 443.1787354474658 1418.6525669640605 450.91663125172585L1418.6525669640605 450.91663125172585Z " fill="#3c1a5b" transform="matrix(0.6021570997787213,0,0,0.6021570997787213,0,61.259213663899075)"/></g></svg>